<?xml version="1.0" encoding="utf-8"?>
<!-- Generator: Adobe Illustrator 16.0.0, SVG Export Plug-In . SVG Version: 6.00 Build 0)  -->
<!DOCTYPE svg PUBLIC "-//W3C//DTD SVG 1.1//EN" "http://www.w3.org/Graphics/SVG/1.1/DTD/svg11.dtd">
<svg version="1.1" id="Capa_1" xmlns="http://www.w3.org/2000/svg" xmlns:xlink="http://www.w3.org/1999/xlink" x="0px" y="0px"
	 width="600px" height="100px" viewBox="0 0 600 100" enable-background="new 0 0 600 100" xml:space="preserve">
<g>
	<g>
		<path fill="#E2001A" d="M302.735,24.75c-11.47-7.698-23.239-7.993-35.963-0.898c-5.04,2.808-10.127,4.908-15.259,6.472
			c-12.918,3.932-18.531,3.853-31.905-0.103c-4.448-1.319-8.926-2.953-13.423-5.148l-1.749-0.857
			c-5.741-2.838-11.182-5.535-16.713-5.013l-0.637,0.018c-7.98-0.497-16.08,2.764-22.249,8.928
			c-8.93,8.935-11.494,21.486-6.844,33.582c3.183,8.23,9.429,14.427,17.631,17.429c8.753,3.212,18.741,2.336,27.388-2.421
			c5.574-3.054,11.144-5.382,16.703-7.028c13.284-3.945,18.908-3.889,31.964,0.162c5.346,1.653,10.655,3.938,15.94,6.943
			c6.213,3.538,12.753,4.958,19.942,4.401c6.818-0.549,13.718-3.841,18.942-9.069c3.824-3.825,6.523-8.4,7.799-13.254
			C317.797,45.688,313.031,31.645,302.735,24.75z M200.636,64.909c-4.053,4.051-9.439,6.177-15.18,5.943
			c-11.212-0.456-20.152-9.801-19.957-20.847c0.111-5.497,2.281-10.657,6.126-14.499c4.006-4.01,9.342-6.122,14.996-5.955
			c11.44,0.333,20.467,9.786,20.128,21.056C206.591,56.054,204.408,61.133,200.636,64.909z M304.035,50.354
			c-0.069,5.389-2.228,10.496-6.076,14.353c-3.89,3.882-9.001,6.012-14.371,5.996c-5.499-0.028-10.659-2.179-14.524-6.089
			c-3.873-3.885-5.983-9.069-5.947-14.558c0.024-5.415,2.155-10.492,5.987-14.331c3.845-3.841,8.949-5.979,14.379-6.024
			c5.451-0.04,10.603,2.116,14.537,6.044C301.949,39.693,304.087,44.882,304.035,50.354z"/>
		<path fill="#E2001A" d="M177.219,41.015c-2.395,2.393-3.734,5.62-3.798,9.068c-0.131,6.766,5.402,12.495,12.344,12.777
			c6.828,0.274,12.862-5.519,13.078-12.582c0.206-6.897-5.382-12.692-12.451-12.908C182.936,37.272,179.674,38.56,177.219,41.015z"
			/>
	</g>
	<path fill="#E2001A" d="M274.7,41.239c-2.356,2.35-3.655,5.471-3.664,8.773c-0.016,3.381,1.271,6.554,3.644,8.95
		c2.376,2.393,5.543,3.725,8.924,3.744c6.528,0.024,12.438-5.89,12.511-12.515c0.04-3.334-1.279-6.514-3.7-8.933
		c-2.408-2.429-5.567-3.748-8.88-3.714C280.199,37.555,277.064,38.868,274.7,41.239z"/>
</g>
<g>
	<path fill="#87888A" d="M108.602,62.408c2.701,1.88,5.451,3.934,8.249,6.152c1.061,0.771,1.977,1.662,2.75,2.675
		c0.772,1.013,1.158,2.194,1.158,3.546c0,1.933-0.676,3.571-2.025,4.919c-1.352,1.355-2.991,2.029-4.92,2.029
		c-1.642,0-3.282-0.674-4.92-2.029c-3.958-2.894-8.009-5.689-12.156-8.393c-4.147-2.698-8.464-5.111-12.951-7.233
		c-4.486-2.122-9.142-3.813-13.965-5.067c-4.825-1.251-9.84-1.88-15.049-1.88H25.973c-1.255,0.197-2.316,0.771-3.184,1.738
		c-0.869,0.965-1.303,2.171-1.303,3.615v19.249h-2.098h-4.848h-4.92H7.595V60.891c0-2.412,0.456-4.704,1.374-6.875
		c0.916-2.17,2.146-4.052,3.69-5.644c1.543-1.591,3.377-2.846,5.501-3.764c2.12-0.914,4.436-1.372,6.945-1.372h76.697
		c1.446,0,2.725-0.508,3.835-1.521c1.107-1.013,1.664-2.29,1.664-3.835c0-1.446-0.557-2.699-1.664-3.762
		c-1.11-1.059-2.389-1.592-3.835-1.592H7.595V30.5v-4.922v-4.92v-2.025h93.627c2.699,0,5.233,0.506,7.597,1.521
		c2.362,1.013,4.436,2.388,6.223,4.123c1.783,1.737,3.183,3.762,4.196,6.078s1.519,4.825,1.519,7.524
		c0,2.703-0.506,5.21-1.519,7.526s-2.413,4.341-4.196,6.078c-1.787,1.734-3.861,3.112-6.223,4.121
		c-2.364,1.017-4.898,1.521-7.597,1.521h-0.579C103.248,58.769,105.901,60.527,108.602,62.408z"/>
	<path fill="#87888A" d="M450.997,20.658v4.92V30.5v2.025h-49.778v49.204h-2.029h-4.918h-4.918h-2.029V32.526h-49.778v-2.243v-4.704
		v-4.92v-2.025h113.451V20.658z"/>
	<path fill="#87888A" d="M486.488,55.605c-2.315-1.009-4.341-2.387-6.08-4.121c-1.734-1.737-3.11-3.762-4.123-6.078
		s-1.517-4.823-1.517-7.526c0-2.699,0.504-5.208,1.517-7.524s2.389-4.341,4.123-6.078c1.739-1.735,3.765-3.11,6.08-4.123
		c2.316-1.015,4.826-1.521,7.524-1.521h76.181v2.025v4.92V30.5v2.025h-76.467c-1.448,0-2.731,0.506-3.837,1.519
		c-1.109,1.015-1.662,2.294-1.662,3.835c0,1.448,0.553,2.703,1.662,3.764c1.105,1.061,2.389,1.592,3.837,1.592h80.017
		c2.703,0,5.237,0.506,7.602,1.517c2.364,1.015,4.414,2.39,6.148,4.125c1.743,1.737,3.114,3.788,4.123,6.15
		c1.017,2.364,1.525,4.898,1.525,7.598c0,2.703-0.509,5.208-1.525,7.524c-1.009,2.315-2.38,4.341-4.123,6.08
		c-1.734,1.734-3.784,3.086-6.148,4.051c-2.364,0.968-4.898,1.448-7.602,1.448h-99.777c-1.933,0-3.575-0.674-4.923-2.029
		c-1.352-1.348-2.025-2.986-2.025-4.919c0-1.928,0.674-3.566,2.025-4.918c1.348-1.352,2.99-2.029,4.923-2.029h100.358
		c1.453,0,2.703-0.504,3.761-1.521c1.064-1.009,1.598-2.239,1.598-3.688c0-1.541-0.533-2.845-1.598-3.905
		c-1.058-1.062-2.308-1.594-3.761-1.594h-80.312C491.314,57.127,488.805,56.622,486.488,55.605z"/>
</g>
</svg>
